<svg xmlns="http://www.w3.org/2000/svg" viewBox="0 0 100 100"><defs><style>.cls-1{fill:#fff;}</style></defs><title>linkedin</title><g id="Layer_1" data-name="Layer 1"><path class="cls-1" d="M94.48,0h-89A5.52,5.52,0,0,0,0,5.52v89A5.52,5.52,0,0,0,5.52,100h89A5.52,5.52,0,0,0,100,94.48v-89A5.52,5.52,0,0,0,94.48,0ZM29.83,86.44H14.7V37.76H29.83ZM22.27,31.1A8.77,8.77,0,1,1,31,22.33,8.77,8.77,0,0,1,22.27,31.1ZM86.5,86.44H71.38V62.77c0-5.65-.1-12.91-7.86-12.91S54.44,56,54.44,62.36V86.44H39.32V37.76H53.83v6.65H54c2-3.83,7-7.86,14.32-7.86,15.32,0,18.15,10.08,18.15,23.19Z"/></g></svg>