<svg id="Layer_1" data-name="Layer 1" xmlns="http://www.w3.org/2000/svg" viewBox="0 0 53.29 60"><defs><style>.cls-1{fill:#edebd7;}</style></defs><title>Artboard 1</title><path class="cls-1" d="M53.09,16.55a3.24,3.24,0,0,0-1.62-2.77L28.07.31a3.23,3.23,0,0,0-3.24,0L1.56,13.91A3.24,3.24,0,0,0,0,16.69V43.18A3.24,3.24,0,0,0,1.59,46L25.18,59.51a3.23,3.23,0,0,0,3.24,0L51.69,45.84A3.24,3.24,0,0,0,53.29,43Zm-2.69-.91a1.08,1.08,0,0,1,.54.92v.75a7.27,7.27,0,0,0-1.08-2Zm-6.84-2.79c1.44,0,2.66,2.64,3,3.77a15.84,15.84,0,0,1,.63,5.65v.14c0,1.23,0,2.73-.69,3.78q-.69,1-2.92,1ZM25.92,2.18a1.08,1.08,0,0,1,1.08,0L28.4,3l-2,34.8L24.23,3.16ZM8.7,19.82l1.5,14.5H7ZM2.11,16.69a1.08,1.08,0,0,1,.53-.93l3.22-1.88L2.12,40.7ZM5.52,45.76l.85-6.45h4.51l.89,10Zm8.89-10.3L10.5,11.18l5.77-3.37ZM27.33,57.63a1.09,1.09,0,0,1-1.08,0l-8.73-5,2.33-37.69,3.82,35h5.51l3.64-35.06,2.55,38ZM39.17,46.07,36.43,7.6l2.64,1.52ZM50.6,44l-7,4.08,0-16a7.87,7.87,0,0,0,5.77-2.32A7,7,0,0,0,51,27l.12,16.06A1.08,1.08,0,0,1,50.6,44Z"/></svg>