<svg xmlns="http://www.w3.org/2000/svg" viewBox="0 0 100 100"><defs><style>.cls-1{fill:#fff;}</style></defs><title>twitter</title><g id="Layer_1" data-name="Layer 1"><path class="cls-1" d="M94.48,0h-89A5.52,5.52,0,0,0,0,5.52v89A5.52,5.52,0,0,0,5.52,100h89A5.52,5.52,0,0,0,100,94.48v-89A5.52,5.52,0,0,0,94.48,0ZM82.22,41.78q0,1,0,1.94c0,19.79-15.07,42.62-42.62,42.62a42.4,42.4,0,0,1-23-6.73,30.49,30.49,0,0,0,3.57.21,30.06,30.06,0,0,0,18.6-6.41,15,15,0,0,1-14-10.4,15,15,0,0,0,6.76-.26,15,15,0,0,1-12-14.68c0-.07,0-.13,0-.19a14.87,14.87,0,0,0,6.78,1.87,15,15,0,0,1-4.64-20A42.52,42.52,0,0,0,52.64,45.39,15,15,0,0,1,78.16,31.73a30,30,0,0,0,9.51-3.64,15,15,0,0,1-6.59,8.29A29.9,29.9,0,0,0,89.69,34,30.48,30.48,0,0,1,82.22,41.78Z"/></g></svg>